<svg width="1282" height="801" xmlns="http://www.w3.org/2000/svg" xmlns:xlink="http://www.w3.org/1999/xlink" overflow="hidden"><defs><clipPath id="clip0"><rect x="-1" y="-1" width="1282" height="801"/></clipPath><clipPath id="clip1"><rect x="201" y="276" width="84" height="86"/></clipPath><clipPath id="clip2"><rect x="201" y="276" width="84" height="86"/></clipPath><clipPath id="clip3"><rect x="201" y="276" width="84" height="86"/></clipPath><clipPath id="clip4"><rect x="291" y="276" width="84" height="86"/></clipPath><clipPath id="clip5"><rect x="291" y="276" width="84" height="86"/></clipPath><clipPath id="clip6"><rect x="291" y="276" width="84" height="86"/></clipPath><clipPath id="clip7"><rect x="382" y="276" width="84" height="86"/></clipPath><clipPath id="clip8"><rect x="382" y="276" width="84" height="86"/></clipPath><clipPath id="clip9"><rect x="382" y="276" width="84" height="86"/></clipPath><clipPath id="clip10"><rect x="480" y="276" width="83" height="86"/></clipPath><clipPath id="clip11"><rect x="480" y="276" width="83" height="86"/></clipPath><clipPath id="clip12"><rect x="480" y="276" width="83" height="86"/></clipPath><clipPath id="clip13"><rect x="111" y="276" width="83" height="86"/></clipPath><clipPath id="clip14"><rect x="111" y="276" width="83" height="86"/></clipPath><clipPath id="clip15"><rect x="111" y="276" width="83" height="86"/></clipPath><clipPath id="clip16"><rect x="28" y="277" width="84" height="86"/></clipPath><clipPath id="clip17"><rect x="28" y="277" width="84" height="86"/></clipPath><clipPath id="clip18"><rect x="28" y="277" width="84" height="86"/></clipPath><clipPath id="clip19"><rect x="568" y="276" width="83" height="86"/></clipPath><clipPath id="clip20"><rect x="568" y="276" width="83" height="86"/></clipPath><clipPath id="clip21"><rect x="568" y="276" width="83" height="86"/></clipPath></defs><g clip-path="url(#clip0)" transform="translate(1 1)"><rect x="0" y="0" width="1280" height="799" fill="#FFFFFF"/><path d="M1115 630.5C1115 607.028 1132.68 588 1154.5 588 1176.32 588 1194 607.028 1194 630.5 1194 653.972 1176.32 673 1154.5 673 1132.68 673 1115 653.972 1115 630.5Z" stroke="#000000" stroke-width="8" stroke-miterlimit="8" fill="none" fill-rule="evenodd"/><path d="M1115 441.5C1115 418.028 1132.68 399 1154.5 399 1176.32 399 1194 418.028 1194 441.5 1194 464.972 1176.32 484 1154.5 484 1132.68 484 1115 464.972 1115 441.5Z" stroke="#000000" stroke-width="12" stroke-miterlimit="8" fill="none" fill-rule="evenodd"/><path d="M989 625.5C989 602.028 1006.68 583 1028.5 583 1050.32 583 1068 602.028 1068 625.5 1068 648.972 1050.32 668 1028.5 668 1006.68 668 989 648.972 989 625.5Z" stroke="#000000" stroke-width="8" stroke-miterlimit="8" fill="none" fill-rule="evenodd"/><path d="M759 620C759 596.252 776.461 577 798 577 819.539 577 837 596.252 837 620 837 643.748 819.539 663 798 663 776.461 663 759 643.748 759 620Z" stroke="#000000" stroke-width="4" stroke-miterlimit="8" fill="none" fill-rule="evenodd"/><path d="M867 441.5C867 418.028 884.461 399 906 399 927.539 399 945 418.028 945 441.5 945 464.972 927.539 484 906 484 884.461 484 867 464.972 867 441.5Z" stroke="#000000" stroke-width="12" stroke-miterlimit="8" fill="none" fill-rule="evenodd"/><path d="M150 341 150 426.534" stroke="#4472C4" stroke-width="4" stroke-miterlimit="8" fill="none" fill-rule="evenodd"/><path d="M150 333 244.084 461.581" stroke="#4472C4" stroke-width="4" stroke-miterlimit="8" fill="none" fill-rule="evenodd"/><path d="M150 337 336.202 461.528" stroke="#4472C4" stroke-width="4" stroke-miterlimit="8" fill="none" fill-rule="evenodd"/><path d="M332 337 426.084 465.581" stroke="#4472C4" stroke-width="4" stroke-miterlimit="8" fill="none" fill-rule="evenodd"/><path d="M332 335 518.202 459.528" stroke="#4472C4" stroke-width="4" stroke-miterlimit="8" fill="none" fill-rule="evenodd"/><path d="M421 333 425.101 463.608" stroke="#4472C4" stroke-width="4" stroke-miterlimit="8" fill="none" fill-rule="evenodd"/><path d="M517 336 521.101 466.608" stroke="#4472C4" stroke-width="4" stroke-miterlimit="8" fill="none" fill-rule="evenodd"/><path d="M243 330 247.101 460.608" stroke="#4472C4" stroke-width="4" stroke-miterlimit="8" fill="none" fill-rule="evenodd"/><path d="M245 333 339.084 461.581" stroke="#4472C4" stroke-width="4" stroke-miterlimit="8" fill="none" fill-rule="evenodd"/><path d="M70 338 256.202 462.528" stroke="#4472C4" stroke-width="4" stroke-miterlimit="8" fill="none" fill-rule="evenodd"/><path d="M0 0 182.61 125.541" stroke="#4472C4" stroke-width="4" stroke-miterlimit="8" fill="none" fill-rule="evenodd" transform="matrix(-1 0 0 1 612.61 336)"/><g clip-path="url(#clip1)"><g clip-path="url(#clip2)"><g clip-path="url(#clip3)"><path d="M56 26.25C56 33.982 49.732 40.25 42 40.25 34.268 40.25 28 33.982 28 26.25 28 18.518 34.268 12.25 42 12.25 49.732 12.25 56 18.518 56 26.25Z" transform="matrix(1 0 0 1.02381 201 276)"/><path d="M70 71.75 70 57.75C70 55.65 68.95 53.55 67.2 52.15 63.35 49 58.45 46.9 53.55 45.5 50.05 44.45 46.2 43.75 42 43.75 38.15 43.75 34.3 44.45 30.45 45.5 25.55 46.9 20.65 49.35 16.8 52.15 15.05 53.55 14 55.65 14 57.75L14 71.75 70 71.75Z" transform="matrix(1 0 0 1.02381 201 276)"/></g></g></g><g clip-path="url(#clip4)"><g clip-path="url(#clip5)"><g clip-path="url(#clip6)"><path d="M56 26.25C56 33.982 49.732 40.25 42 40.25 34.268 40.25 28 33.982 28 26.25 28 18.518 34.268 12.25 42 12.25 49.732 12.25 56 18.518 56 26.25Z" transform="matrix(1 0 0 1.02381 291 276)"/><path d="M70 71.75 70 57.75C70 55.65 68.95 53.55 67.2 52.15 63.35 49 58.45 46.9 53.55 45.5 50.05 44.45 46.2 43.75 42 43.75 38.15 43.75 34.3 44.45 30.45 45.5 25.55 46.9 20.65 49.35 16.8 52.15 15.05 53.55 14 55.65 14 57.75L14 71.75 70 71.75Z" transform="matrix(1 0 0 1.02381 291 276)"/></g></g></g><g clip-path="url(#clip7)"><g clip-path="url(#clip8)"><g clip-path="url(#clip9)"><path d="M56 26.25C56 33.982 49.732 40.25 42 40.25 34.268 40.25 28 33.982 28 26.25 28 18.518 34.268 12.25 42 12.25 49.732 12.25 56 18.518 56 26.25Z" transform="matrix(1 0 0 1.02381 382 276)"/><path d="M70 71.75 70 57.75C70 55.65 68.95 53.55 67.2 52.15 63.35 49 58.45 46.9 53.55 45.5 50.05 44.45 46.2 43.75 42 43.75 38.15 43.75 34.3 44.45 30.45 45.5 25.55 46.9 20.65 49.35 16.8 52.15 15.05 53.55 14 55.65 14 57.75L14 71.75 70 71.75Z" transform="matrix(1 0 0 1.02381 382 276)"/></g></g></g><g clip-path="url(#clip10)"><g clip-path="url(#clip11)"><g clip-path="url(#clip12)"><path d="M55.3333 25.9375C55.3333 33.5774 49.1399 39.7708 41.5 39.7708 33.8601 39.7708 27.6667 33.5774 27.6667 25.9375 27.6667 18.2976 33.8601 12.1042 41.5 12.1042 49.1399 12.1042 55.3333 18.2976 55.3333 25.9375Z" transform="matrix(1 0 0 1.03614 480 276)"/><path d="M69.1667 70.8958 69.1667 57.0625C69.1667 54.9875 68.1292 52.9125 66.4 51.5292 62.5958 48.4167 57.7542 46.3417 52.9125 44.9583 49.4542 43.9208 45.65 43.2292 41.5 43.2292 37.6958 43.2292 33.8917 43.9208 30.0875 44.9583 25.2458 46.3417 20.4042 48.7625 16.6 51.5292 14.8708 52.9125 13.8333 54.9875 13.8333 57.0625L13.8333 70.8958 69.1667 70.8958Z" transform="matrix(1 0 0 1.03614 480 276)"/></g></g></g><g clip-path="url(#clip13)"><g clip-path="url(#clip14)"><g clip-path="url(#clip15)"><path d="M55.3333 25.9375C55.3333 33.5774 49.1399 39.7708 41.5 39.7708 33.8601 39.7708 27.6667 33.5774 27.6667 25.9375 27.6667 18.2976 33.8601 12.1042 41.5 12.1042 49.1399 12.1042 55.3333 18.2976 55.3333 25.9375Z" transform="matrix(1 0 0 1.03614 111 276)"/><path d="M69.1667 70.8958 69.1667 57.0625C69.1667 54.9875 68.1292 52.9125 66.4 51.5292 62.5958 48.4167 57.7542 46.3417 52.9125 44.9583 49.4542 43.9208 45.65 43.2292 41.5 43.2292 37.6958 43.2292 33.8917 43.9208 30.0875 44.9583 25.2458 46.3417 20.4042 48.7625 16.6 51.5292 14.8708 52.9125 13.8333 54.9875 13.8333 57.0625L13.8333 70.8958 69.1667 70.8958Z" transform="matrix(1 0 0 1.03614 111 276)"/></g></g></g><g clip-path="url(#clip16)"><g clip-path="url(#clip17)"><g clip-path="url(#clip18)"><path d="M56 26.25C56 33.982 49.732 40.25 42 40.25 34.268 40.25 28 33.982 28 26.25 28 18.518 34.268 12.25 42 12.25 49.732 12.25 56 18.518 56 26.25Z" transform="matrix(1 0 0 1.02381 28 277)"/><path d="M70 71.75 70 57.75C70 55.65 68.95 53.55 67.2 52.15 63.35 49 58.45 46.9 53.55 45.5 50.05 44.45 46.2 43.75 42 43.75 38.15 43.75 34.3 44.45 30.45 45.5 25.55 46.9 20.65 49.35 16.8 52.15 15.05 53.55 14 55.65 14 57.75L14 71.75 70 71.75Z" transform="matrix(1 0 0 1.02381 28 277)"/></g></g></g><g clip-path="url(#clip19)"><g clip-path="url(#clip20)"><g clip-path="url(#clip21)"><path d="M55.3333 25.9375C55.3333 33.5774 49.1399 39.7708 41.5 39.7708 33.8601 39.7708 27.6667 33.5774 27.6667 25.9375 27.6667 18.2976 33.8601 12.1042 41.5 12.1042 49.1399 12.1042 55.3333 18.2976 55.3333 25.9375Z" transform="matrix(1 0 0 1.03614 568 276)"/><path d="M69.1667 70.8958 69.1667 57.0625C69.1667 54.9875 68.1292 52.9125 66.4 51.5292 62.5958 48.4167 57.7542 46.3417 52.9125 44.9583 49.4542 43.9208 45.65 43.2292 41.5 43.2292 37.6958 43.2292 33.8917 43.9208 30.0875 44.9583 25.2458 46.3417 20.4042 48.7625 16.6 51.5292 14.8708 52.9125 13.8333 54.9875 13.8333 57.0625L13.8333 70.8958 69.1667 70.8958Z" transform="matrix(1 0 0 1.03614 568 276)"/></g></g></g><path d="M115.5 462.5C115.5 442.618 130.946 426.5 150 426.5 169.054 426.5 184.5 442.618 184.5 462.5 184.5 482.382 169.054 498.5 150 498.5 130.946 498.5 115.5 482.382 115.5 462.5Z" stroke="#FFD966" stroke-width="1.33333" stroke-miterlimit="8" fill="#FFD966" fill-rule="evenodd"/><text font-family="Calibri,Calibri_MSFontService,sans-serif" font-weight="400" font-size="24" transform="translate(142.871 470)">A</text><path d="M216.5 462.5C216.5 442.618 231.946 426.5 251 426.5 270.054 426.5 285.5 442.618 285.5 462.5 285.5 482.382 270.054 498.5 251 498.5 231.946 498.5 216.5 482.382 216.5 462.5Z" stroke="#FFD966" stroke-width="1.33333" stroke-miterlimit="8" fill="#FFD966" fill-rule="evenodd"/><text font-family="Calibri,Calibri_MSFontService,sans-serif" font-weight="400" font-size="24" transform="translate(243.777 470)">B</text><path d="M306.5 462.5C306.5 442.618 321.946 426.5 341 426.5 360.054 426.5 375.5 442.618 375.5 462.5 375.5 482.382 360.054 498.5 341 498.5 321.946 498.5 306.5 482.382 306.5 462.5Z" stroke="#FFD966" stroke-width="1.33333" stroke-miterlimit="8" fill="#FFD966" fill-rule="evenodd"/><text font-family="Calibri,Calibri_MSFontService,sans-serif" font-weight="400" font-size="24" transform="translate(334.284 470)">C</text><path d="M397.5 462.5C397.5 442.618 412.946 426.5 432 426.5 451.054 426.5 466.5 442.618 466.5 462.5 466.5 482.382 451.054 498.5 432 498.5 412.946 498.5 397.5 482.382 397.5 462.5Z" stroke="#FFD966" stroke-width="1.33333" stroke-miterlimit="8" fill="#FFD966" fill-rule="evenodd"/><text font-family="Calibri,Calibri_MSFontService,sans-serif" font-weight="400" font-size="24" transform="translate(423.708 470)">D</text><path d="M490.5 462.5C490.5 442.618 505.946 426.5 525 426.5 544.054 426.5 559.5 442.618 559.5 462.5 559.5 482.382 544.054 498.5 525 498.5 505.946 498.5 490.5 482.382 490.5 462.5Z" stroke="#FFD966" stroke-width="1.33333" stroke-miterlimit="8" fill="#FFD966" fill-rule="evenodd"/><text font-family="Calibri,Calibri_MSFontService,sans-serif" font-weight="400" font-size="24" transform="translate(518.833 470)">E</text><path d="M0 0 84.7427 96.6667" stroke="#000000" stroke-width="4" stroke-miterlimit="8" fill="none" fill-rule="evenodd" transform="matrix(-1 0 0 1 905.743 82)"/><path d="M905 82 999.041 184.153" stroke="#000000" stroke-width="8" stroke-miterlimit="8" fill="none" fill-rule="evenodd"/><path d="M0 0 173.721 0.000104987" stroke="#000000" stroke-width="4" stroke-miterlimit="8" fill="none" fill-rule="evenodd" transform="matrix(-1 0 0 1 996.721 183)"/><path d="M785.5 183.5C785.5 165.827 800.499 151.5 819 151.5 837.502 151.5 852.5 165.827 852.5 183.5 852.5 201.173 837.502 215.5 819 215.5 800.499 215.5 785.5 201.173 785.5 183.5Z" stroke="#FFD966" stroke-width="1.33333" stroke-miterlimit="8" fill="#FFD966" fill-rule="evenodd"/><text font-family="Calibri,Calibri_MSFontService,sans-serif" font-weight="400" font-size="24" transform="translate(811.573 191)">A</text><path d="M869.5 82.5001C869.5 64.8269 884.722 50.5001 903.5 50.5001 922.278 50.5001 937.5 64.8269 937.5 82.5001 937.5 100.173 922.278 114.5 903.5 114.5 884.722 114.5 869.5 100.173 869.5 82.5001Z" stroke="#FFD966" stroke-width="1.33333" stroke-miterlimit="8" fill="#FFD966" fill-rule="evenodd"/><text font-family="Calibri,Calibri_MSFontService,sans-serif" font-weight="400" font-size="24" transform="translate(896.732 89)">B</text><path d="M968.5 183.5C968.5 165.827 983.722 151.5 1002.5 151.5 1021.28 151.5 1036.5 165.827 1036.5 183.5 1036.5 201.173 1021.28 215.5 1002.5 215.5 983.722 215.5 968.5 201.173 968.5 183.5Z" stroke="#FFD966" stroke-width="1.33333" stroke-miterlimit="8" fill="#FFD966" fill-rule="evenodd"/><text font-family="Calibri,Calibri_MSFontService,sans-serif" font-weight="400" font-size="24" transform="translate(995.423 191)">C</text><path d="M1157 69 1157 191.394" stroke="#000000" stroke-width="4" stroke-miterlimit="8" fill="none" fill-rule="evenodd"/><path d="M1124.5 69.5001C1124.5 51.8269 1139.5 37.5001 1158 37.5001 1176.5 37.5001 1191.5 51.8269 1191.5 69.5001 1191.5 87.1732 1176.5 101.5 1158 101.5 1139.5 101.5 1124.5 87.1732 1124.5 69.5001Z" stroke="#FFD966" stroke-width="1.33333" stroke-miterlimit="8" fill="#FFD966" fill-rule="evenodd"/><text font-family="Calibri,Calibri_MSFontService,sans-serif" font-weight="400" font-size="24" transform="translate(1149.98 77)">D</text><path d="M1124.5 190.5C1124.5 172.827 1139.5 158.5 1158 158.5 1176.5 158.5 1191.5 172.827 1191.5 190.5 1191.5 208.173 1176.5 222.5 1158 222.5 1139.5 222.5 1124.5 208.173 1124.5 190.5Z" stroke="#FFD966" stroke-width="1.33333" stroke-miterlimit="8" fill="#FFD966" fill-rule="evenodd"/><text font-family="Calibri,Calibri_MSFontService,sans-serif" font-weight="400" font-size="24" transform="translate(1151.56 197)">E</text><path d="M0 0 84.7427 96.6667" stroke="#000000" stroke-width="4" stroke-miterlimit="8" fill="none" fill-rule="evenodd" transform="matrix(-1 0 0 1 905.743 486)"/><path d="M905 486 999.041 588.153" stroke="#000000" stroke-width="8" stroke-miterlimit="8" fill="none" fill-rule="evenodd"/><path d="M0 0 173.721 0.000104987" stroke="#000000" stroke-width="4" stroke-miterlimit="8" fill="none" fill-rule="evenodd" transform="matrix(-1 0 0 1 996.721 588)"/><path d="M785.5 588.5C785.5 570.827 800.499 556.5 819 556.5 837.502 556.5 852.5 570.827 852.5 588.5 852.5 606.173 837.502 620.5 819 620.5 800.499 620.5 785.5 606.173 785.5 588.5Z" stroke="#FFD966" stroke-width="1.33333" stroke-miterlimit="8" fill="#FFD966" fill-rule="evenodd"/><text font-family="Calibri,Calibri_MSFontService,sans-serif" font-weight="400" font-size="24" transform="translate(811.573 595)">A</text><path d="M869.5 487C869.5 469.051 884.722 454.5 903.5 454.5 922.278 454.5 937.5 469.051 937.5 487 937.5 504.949 922.278 519.5 903.5 519.5 884.722 519.5 869.5 504.949 869.5 487Z" stroke="#FFD966" stroke-width="1.33333" stroke-miterlimit="8" fill="#FFD966" fill-rule="evenodd"/><text font-family="Calibri,Calibri_MSFontService,sans-serif" font-weight="400" font-size="24" transform="translate(896.732 494)">B</text><path d="M968.5 588.5C968.5 570.827 983.722 556.5 1002.5 556.5 1021.28 556.5 1036.5 570.827 1036.5 588.5 1036.5 606.173 1021.28 620.5 1002.5 620.5 983.722 620.5 968.5 606.173 968.5 588.5Z" stroke="#FFD966" stroke-width="1.33333" stroke-miterlimit="8" fill="#FFD966" fill-rule="evenodd"/><text font-family="Calibri,Calibri_MSFontService,sans-serif" font-weight="400" font-size="24" transform="translate(995.423 595)">C</text><path d="M1157 474 1157 596.394" stroke="#000000" stroke-width="4" stroke-miterlimit="8" fill="none" fill-rule="evenodd"/><path d="M1124.5 474.5C1124.5 456.827 1139.5 442.5 1158 442.5 1176.5 442.5 1191.5 456.827 1191.5 474.5 1191.5 492.173 1176.5 506.5 1158 506.5 1139.5 506.5 1124.5 492.173 1124.5 474.5Z" stroke="#FFD966" stroke-width="1.33333" stroke-miterlimit="8" fill="#FFD966" fill-rule="evenodd"/><text font-family="Calibri,Calibri_MSFontService,sans-serif" font-weight="400" font-size="24" transform="translate(1149.98 481)">D</text><path d="M1124.5 595C1124.5 577.051 1139.5 562.5 1158 562.5 1176.5 562.5 1191.5 577.051 1191.5 595 1191.5 612.949 1176.5 627.5 1158 627.5 1139.5 627.5 1124.5 612.949 1124.5 595Z" stroke="#FFD966" stroke-width="1.33333" stroke-miterlimit="8" fill="#FFD966" fill-rule="evenodd"/><text font-family="Calibri,Calibri_MSFontService,sans-serif" font-weight="400" font-size="24" transform="translate(1151.56 602)">E<tspan x="-315.982" y="-473">1</tspan><tspan x="-192.97" y="-479">2</tspan><tspan x="-252.685" y="-388">1</tspan><tspan x="-22.1958" y="-460">1</tspan><tspan x="-314.076" y="-73">1</tspan><tspan x="-191.065" y="-79">2</tspan><tspan x="-250.779" y="12">1</tspan><tspan x="-20.2902" y="-60">1</tspan><tspan x="-359.985" y="95">1</tspan><tspan x="-129.403" y="101">2</tspan><tspan x="-5.38623" y="103">2</tspan><tspan x="-252.685" y="-223">3</tspan><tspan x="-9.18677" y="-220">3</tspan><tspan font-size="43" x="-1101.22" y="-370">A</tspan><tspan font-size="43" x="-436.238" y="-536">B</tspan><tspan font-size="43" x="-423.838" y="-177">C</tspan><tspan x="-942.82" y="-28">Original bipartite network </tspan><tspan x="-297.014" y="-320">“baseline” co</tspan><tspan x="-167.714" y="-320">-</tspan><tspan x="-160.381" y="-320">exposure network</tspan><tspan x="-327.072" y="150">“augmented” </tspan><tspan x="-190.638" y="150">co</tspan><tspan x="-168.005" y="150">-</tspan><tspan x="-160.672" y="150">exposure network</tspan></text></g></svg>