<svg width="1255" height="384" xmlns="http://www.w3.org/2000/svg" xmlns:xlink="http://www.w3.org/1999/xlink" overflow="hidden"><defs><clipPath id="clip0"><rect x="18" y="100" width="1255" height="384"/></clipPath></defs><g clip-path="url(#clip0)" transform="translate(-18 -100)"><rect x="19.5001" y="101.5" width="1253" height="382" stroke="#FFFFFF" stroke-width="1.33333" stroke-miterlimit="8" fill="#FFFFFF"/><path d="M300.64 409.213 291.5 335.5" stroke="#000000" stroke-width="0.666667" stroke-miterlimit="8" fill="none" fill-rule="evenodd"/><path d="M0 0 85.942 1.14331" stroke="#000000" stroke-width="0.666667" stroke-miterlimit="8" fill="none" fill-rule="evenodd" transform="matrix(-1 0 0 1 376.442 334.5)"/><path d="M338 362.994 290.5 334.5" stroke="#000000" stroke-width="0.666667" stroke-miterlimit="8" fill="none" fill-rule="evenodd"/><path d="M0 0 38.6055 28.2521" stroke="#000000" stroke-width="0.666667" stroke-miterlimit="8" fill="none" fill-rule="evenodd" transform="matrix(-1 0 0 1 376.105 335.5)"/><path d="M0 0 36.9471 47.405" stroke="#000000" stroke-width="0.666667" stroke-miterlimit="8" fill="none" fill-rule="evenodd" transform="matrix(-1 0 0 1 337.447 363.5)"/><path d="M0 0 77.4741 74.0677" stroke="#000000" stroke-width="0.666667" stroke-miterlimit="8" fill="none" fill-rule="evenodd" transform="matrix(-1 0 0 1 376.974 335.5)"/><path d="M153.5 335.033 134.5 293.5" stroke="#000000" stroke-width="0.666667" stroke-miterlimit="8" fill="none" fill-rule="evenodd"/><path d="M135.5 292.5 171.5 378.464" stroke="#000000" stroke-width="0.666667" stroke-miterlimit="8" fill="none" fill-rule="evenodd"/><path d="M97.5001 353.5 173.527 377.978" stroke="#000000" stroke-width="0.666667" stroke-miterlimit="8" fill="none" fill-rule="evenodd"/><path d="M0 0 55 14.4883" stroke="#000000" stroke-width="0.666667" stroke-miterlimit="8" fill="none" fill-rule="evenodd" transform="matrix(1 0 0 -1 97.5001 349.988)"/><path d="M0 0 37.4471 60.2535" stroke="#000000" stroke-width="0.666667" stroke-miterlimit="8" fill="none" fill-rule="evenodd" transform="matrix(-1 0 0 1 134.947 292.5)"/><path d="M171 378.448 154.5 334.5" stroke="#000000" stroke-width="0.666667" stroke-miterlimit="8" fill="none" fill-rule="evenodd"/><path d="M0 0 5.49995 52.4886" stroke="#000000" stroke-width="0.666667" stroke-miterlimit="8" fill="none" fill-rule="evenodd" transform="matrix(1 0 0 -1 249.5 226.989)"/><path d="M0 0 58.4999 32.3571" stroke="#000000" stroke-width="0.666667" stroke-miterlimit="8" fill="none" fill-rule="evenodd" transform="matrix(-1 0 0 1 255 173.5)"/><path d="M296 232.579 196.5 206.5" stroke="#000000" stroke-width="0.666667" stroke-miterlimit="8" fill="none" fill-rule="evenodd"/><path d="M294.534 233.668 247.5 226.5" stroke="#000000" stroke-width="0.666667" stroke-miterlimit="8" fill="none" fill-rule="evenodd"/><path d="M296.14 234.233 255.5 174.5" stroke="#000000" stroke-width="0.666667" stroke-miterlimit="8" fill="none" fill-rule="evenodd"/><path d="M247.672 225.335 193.5 206.5" stroke="#000000" stroke-width="0.666667" stroke-miterlimit="8" fill="none" fill-rule="evenodd"/><path d="M125.5 292C125.5 287.306 129.529 283.5 134.5 283.5 139.471 283.5 143.5 287.306 143.5 292 143.5 296.694 139.471 300.5 134.5 300.5 129.529 300.5 125.5 296.694 125.5 292Z" stroke="#4472C4" stroke-width="1.33333" stroke-miterlimit="8" fill="#4472C4" fill-rule="evenodd"/><path d="M88.5001 351.5C88.5001 346.53 92.5295 342.5 97.5001 342.5 102.471 342.5 106.5 346.53 106.5 351.5 106.5 356.471 102.471 360.5 97.5001 360.5 92.5295 360.5 88.5001 356.471 88.5001 351.5Z" stroke="#4472C4" stroke-width="1.33333" stroke-miterlimit="8" fill="#4472C4" fill-rule="evenodd"/><path d="M162.5 376.5C162.5 371.53 166.529 367.5 171.5 367.5 176.471 367.5 180.5 371.53 180.5 376.5 180.5 381.471 176.471 385.5 171.5 385.5 166.529 385.5 162.5 381.471 162.5 376.5Z" stroke="#4472C4" stroke-width="1.33333" stroke-miterlimit="8" fill="#4472C4" fill-rule="evenodd"/><path d="M143.5 333.5C143.5 328.53 147.753 324.5 153 324.5 158.247 324.5 162.5 328.53 162.5 333.5 162.5 338.471 158.247 342.5 153 342.5 147.753 342.5 143.5 338.471 143.5 333.5Z" stroke="#4472C4" stroke-width="1.33333" stroke-miterlimit="8" fill="#4472C4" fill-rule="evenodd"/><path d="M245.5 171.5C245.5 166.529 249.753 162.5 255 162.5 260.247 162.5 264.5 166.529 264.5 171.5 264.5 176.471 260.247 180.5 255 180.5 249.753 180.5 245.5 176.471 245.5 171.5Z" stroke="#FFC000" stroke-width="1.33333" stroke-miterlimit="8" fill="#FFC000" fill-rule="evenodd"/><path d="M236.5 223.5C236.5 218.529 240.753 214.5 246 214.5 251.247 214.5 255.5 218.529 255.5 223.5 255.5 228.471 251.247 232.5 246 232.5 240.753 232.5 236.5 228.471 236.5 223.5Z" stroke="#FFC000" stroke-width="1.33333" stroke-miterlimit="8" fill="#FFC000" fill-rule="evenodd"/><path d="M284.5 232.5C284.5 227.529 288.753 223.5 294 223.5 299.247 223.5 303.5 227.529 303.5 232.5 303.5 237.471 299.247 241.5 294 241.5 288.753 241.5 284.5 237.471 284.5 232.5Z" stroke="#FFC000" stroke-width="1.33333" stroke-miterlimit="8" fill="#FFC000" fill-rule="evenodd"/><path d="M185.5 204.5C185.5 199.529 189.529 195.5 194.5 195.5 199.471 195.5 203.5 199.529 203.5 204.5 203.5 209.471 199.471 213.5 194.5 213.5 189.529 213.5 185.5 209.471 185.5 204.5Z" stroke="#FFC000" stroke-width="1.33333" stroke-miterlimit="8" fill="#FFC000" fill-rule="evenodd"/><path d="M279.5 333.5C279.5 328.53 283.53 324.5 288.5 324.5 293.471 324.5 297.5 328.53 297.5 333.5 297.5 338.471 293.471 342.5 288.5 342.5 283.53 342.5 279.5 338.471 279.5 333.5Z" stroke="#548235" stroke-width="1.33333" stroke-miterlimit="8" fill="#548235" fill-rule="evenodd"/><path d="M368.5 332.5C368.5 327.53 372.753 323.5 378 323.5 383.247 323.5 387.5 327.53 387.5 332.5 387.5 337.471 383.247 341.5 378 341.5 372.753 341.5 368.5 337.471 368.5 332.5Z" stroke="#548235" stroke-width="1.33333" stroke-miterlimit="8" fill="#548235" fill-rule="evenodd"/><path d="M290.5 408.5C290.5 403.53 294.53 399.5 299.5 399.5 304.471 399.5 308.5 403.53 308.5 408.5 308.5 413.471 304.471 417.5 299.5 417.5 294.53 417.5 290.5 413.471 290.5 408.5Z" stroke="#548235" stroke-width="1.33333" stroke-miterlimit="8" fill="#548235" fill-rule="evenodd"/><path d="M328.5 363.5C328.5 358.53 332.53 354.5 337.5 354.5 342.471 354.5 346.5 358.53 346.5 363.5 346.5 368.471 342.471 372.5 337.5 372.5 332.53 372.5 328.5 368.471 328.5 363.5Z" stroke="#548235" stroke-width="1.33333" stroke-miterlimit="8" fill="#548235" fill-rule="evenodd"/><text font-family="Calibri,Calibri_MSFontService,sans-serif" font-weight="400" font-size="24" transform="translate(52.7756 159)">A</text><path d="M729.64 408.213 720.5 334.5" stroke="#000000" stroke-width="0.666667" stroke-miterlimit="8" fill="none" fill-rule="evenodd"/><path d="M0 0 85.942 1.14331" stroke="#000000" stroke-width="0.666667" stroke-miterlimit="8" fill="none" fill-rule="evenodd" transform="matrix(-1 0 0 1 805.442 332.5)"/><path d="M767 361.994 719.5 333.5" stroke="#000000" stroke-width="0.666667" stroke-miterlimit="8" fill="none" fill-rule="evenodd"/><path d="M0 0 38.6055 28.2521" stroke="#000000" stroke-width="0.666667" stroke-miterlimit="8" fill="none" fill-rule="evenodd" transform="matrix(-1 0 0 1 805.106 333.5)"/><path d="M0 0 36.9471 47.405" stroke="#000000" stroke-width="0.666667" stroke-miterlimit="8" fill="none" fill-rule="evenodd" transform="matrix(-1 0 0 1 766.447 362.5)"/><path d="M806.631 333.823 678.5 224.5" stroke="#000000" stroke-width="0.666667" stroke-miterlimit="8" fill="none" fill-rule="evenodd"/><path d="M582.5 333.033 563.5 291.5" stroke="#000000" stroke-width="0.666667" stroke-miterlimit="8" fill="none" fill-rule="evenodd"/><path d="M0 0 59.8687 86.1416" stroke="#000000" stroke-width="0.666667" stroke-miterlimit="8" fill="none" fill-rule="evenodd" transform="matrix(1 0 0 -1 564.5 290.642)"/><path d="M526.5 351.5 602.527 375.978" stroke="#000000" stroke-width="0.666667" stroke-miterlimit="8" fill="none" fill-rule="evenodd"/><path d="M526.5 348.5 768.869 363.293" stroke="#000000" stroke-width="0.666667" stroke-miterlimit="8" fill="none" fill-rule="evenodd"/><path d="M0 0 37.4471 60.2534" stroke="#000000" stroke-width="0.666667" stroke-miterlimit="8" fill="none" fill-rule="evenodd" transform="matrix(-1 0 0 1 563.947 290.5)"/><path d="M600 376.448 583.5 332.5" stroke="#000000" stroke-width="0.666667" stroke-miterlimit="8" fill="none" fill-rule="evenodd"/><path d="M0 0 101.131 160.973" stroke="#000000" stroke-width="0.666667" stroke-miterlimit="8" fill="none" fill-rule="evenodd" transform="matrix(1 0 0 -1 582.5 333.473)"/><path d="M0 0 58.4999 32.3571" stroke="#000000" stroke-width="0.666667" stroke-miterlimit="8" fill="none" fill-rule="evenodd" transform="matrix(-1 0 0 1 684 171.5)"/><path d="M725 231.579 625.5 205.5" stroke="#000000" stroke-width="0.666667" stroke-miterlimit="8" fill="none" fill-rule="evenodd"/><path d="M0 0 4.63129 99.3082" stroke="#000000" stroke-width="0.666667" stroke-miterlimit="8" fill="none" fill-rule="evenodd" transform="matrix(-1 0 0 1 724.131 231.5)"/><path d="M725.14 232.233 684.5 172.5" stroke="#000000" stroke-width="0.666667" stroke-miterlimit="8" fill="none" fill-rule="evenodd"/><path d="M676.672 224.335 622.5 205.5" stroke="#000000" stroke-width="0.666667" stroke-miterlimit="8" fill="none" fill-rule="evenodd"/><path d="M554.5 290.5C554.5 285.53 558.753 281.5 564 281.5 569.247 281.5 573.5 285.53 573.5 290.5 573.5 295.471 569.247 299.5 564 299.5 558.753 299.5 554.5 295.471 554.5 290.5Z" stroke="#4472C4" stroke-width="1.33333" stroke-miterlimit="8" fill="#4472C4" fill-rule="evenodd"/><path d="M517.5 349.5C517.5 344.53 521.753 340.5 527 340.5 532.247 340.5 536.5 344.53 536.5 349.5 536.5 354.471 532.247 358.5 527 358.5 521.753 358.5 517.5 354.471 517.5 349.5Z" stroke="#4472C4" stroke-width="1.33333" stroke-miterlimit="8" fill="#4472C4" fill-rule="evenodd"/><path d="M591.5 375C591.5 370.306 595.753 366.5 601 366.5 606.247 366.5 610.5 370.306 610.5 375 610.5 379.694 606.247 383.5 601 383.5 595.753 383.5 591.5 379.694 591.5 375Z" stroke="#4472C4" stroke-width="1.33333" stroke-miterlimit="8" fill="#4472C4" fill-rule="evenodd"/><path d="M573.5 331.5C573.5 326.53 577.529 322.5 582.5 322.5 587.471 322.5 591.5 326.53 591.5 331.5 591.5 336.471 587.471 340.5 582.5 340.5 577.529 340.5 573.5 336.471 573.5 331.5Z" stroke="#4472C4" stroke-width="1.33333" stroke-miterlimit="8" fill="#4472C4" fill-rule="evenodd"/><path d="M675.5 170.5C675.5 165.529 679.529 161.5 684.5 161.5 689.471 161.5 693.5 165.529 693.5 170.5 693.5 175.471 689.471 179.5 684.5 179.5 679.529 179.5 675.5 175.471 675.5 170.5Z" stroke="#FFC000" stroke-width="1.33333" stroke-miterlimit="8" fill="#FFC000" fill-rule="evenodd"/><path d="M665.5 222.5C665.5 217.529 669.753 213.5 675 213.5 680.247 213.5 684.5 217.529 684.5 222.5 684.5 227.471 680.247 231.5 675 231.5 669.753 231.5 665.5 227.471 665.5 222.5Z" stroke="#FFC000" stroke-width="1.33333" stroke-miterlimit="8" fill="#FFC000" fill-rule="evenodd"/><path d="M713.5 231.5C713.5 226.529 717.753 222.5 723 222.5 728.247 222.5 732.5 226.529 732.5 231.5 732.5 236.471 728.247 240.5 723 240.5 717.753 240.5 713.5 236.471 713.5 231.5Z" stroke="#FFC000" stroke-width="1.33333" stroke-miterlimit="8" fill="#FFC000" fill-rule="evenodd"/><path d="M614.5 202.5C614.5 197.529 618.529 193.5 623.5 193.5 628.471 193.5 632.5 197.529 632.5 202.5 632.5 207.471 628.471 211.5 623.5 211.5 618.529 211.5 614.5 207.471 614.5 202.5Z" stroke="#FFC000" stroke-width="1.33333" stroke-miterlimit="8" fill="#FFC000" fill-rule="evenodd"/><path d="M708.5 331.5C708.5 326.53 712.753 322.5 718 322.5 723.247 322.5 727.5 326.53 727.5 331.5 727.5 336.471 723.247 340.5 718 340.5 712.753 340.5 708.5 336.471 708.5 331.5Z" stroke="#548235" stroke-width="1.33333" stroke-miterlimit="8" fill="#548235" fill-rule="evenodd"/><path d="M797.5 331.5C797.5 326.53 801.753 322.5 807 322.5 812.247 322.5 816.5 326.53 816.5 331.5 816.5 336.471 812.247 340.5 807 340.5 801.753 340.5 797.5 336.471 797.5 331.5Z" stroke="#548235" stroke-width="1.33333" stroke-miterlimit="8" fill="#548235" fill-rule="evenodd"/><path d="M719.5 406.5C719.5 401.53 723.753 397.5 729 397.5 734.247 397.5 738.5 401.53 738.5 406.5 738.5 411.471 734.247 415.5 729 415.5 723.753 415.5 719.5 411.471 719.5 406.5Z" stroke="#548235" stroke-width="1.33333" stroke-miterlimit="8" fill="#548235" fill-rule="evenodd"/><path d="M757.5 362C757.5 357.306 761.753 353.5 767 353.5 772.247 353.5 776.5 357.306 776.5 362 776.5 366.694 772.247 370.5 767 370.5 761.753 370.5 757.5 366.694 757.5 362Z" stroke="#548235" stroke-width="1.33333" stroke-miterlimit="8" fill="#548235" fill-rule="evenodd"/><text font-family="Calibri,Calibri_MSFontService,sans-serif" font-weight="400" font-size="24" transform="translate(457.969 159)">B</text><path d="M1159.37 402.568 1015.5 328.5" stroke="#000000" stroke-width="0.666667" stroke-miterlimit="8" fill="none" fill-rule="evenodd"/><path d="M0 0 85.942 1.14331" stroke="#000000" stroke-width="0.666667" stroke-miterlimit="8" fill="none" fill-rule="evenodd" transform="matrix(-1 0 0 1 1235.44 327.5)"/><path d="M1014.5 326.5 1149.37 328.126" stroke="#000000" stroke-width="0.666667" stroke-miterlimit="8" fill="none" fill-rule="evenodd"/><path d="M0 0 38.6055 28.2521" stroke="#000000" stroke-width="0.666667" stroke-miterlimit="8" fill="none" fill-rule="evenodd" transform="matrix(-1 0 0 1 1235.11 328.5)"/><path d="M0 0 36.9471 47.405" stroke="#000000" stroke-width="0.666667" stroke-miterlimit="8" fill="none" fill-rule="evenodd" transform="matrix(-1 0 0 1 1196.45 357.5)"/><path d="M1236.63 328.823 1108.5 219.5" stroke="#000000" stroke-width="0.666667" stroke-miterlimit="8" fill="none" fill-rule="evenodd"/><path d="M1012.5 328.033 993.5 286.5" stroke="#000000" stroke-width="0.666667" stroke-miterlimit="8" fill="none" fill-rule="evenodd"/><path d="M0 0 59.8687 86.1416" stroke="#000000" stroke-width="0.666667" stroke-miterlimit="8" fill="none" fill-rule="evenodd" transform="matrix(1 0 0 -1 994.5 285.642)"/><path d="M956.5 346.5 1032.53 370.978" stroke="#000000" stroke-width="0.666667" stroke-miterlimit="8" fill="none" fill-rule="evenodd"/><path d="M956.5 343.5 1198.87 358.293" stroke="#000000" stroke-width="0.666667" stroke-miterlimit="8" fill="none" fill-rule="evenodd"/><path d="M0 0 37.4471 60.2534" stroke="#000000" stroke-width="0.666667" stroke-miterlimit="8" fill="none" fill-rule="evenodd" transform="matrix(-1 0 0 1 993.947 285.5)"/><path d="M0 0 165.632 10.3193" stroke="#000000" stroke-width="0.666667" stroke-miterlimit="8" fill="none" fill-rule="evenodd" transform="matrix(1 0 0 -1 1030.5 371.819)"/><path d="M0 0 101.131 160.973" stroke="#000000" stroke-width="0.666667" stroke-miterlimit="8" fill="none" fill-rule="evenodd" transform="matrix(1 0 0 -1 1012.5 328.473)"/><path d="M0 0 58.4999 32.3571" stroke="#000000" stroke-width="0.666667" stroke-miterlimit="8" fill="none" fill-rule="evenodd" transform="matrix(-1 0 0 1 1114 166.5)"/><path d="M1156 226.579 1056.5 200.5" stroke="#000000" stroke-width="0.666667" stroke-miterlimit="8" fill="none" fill-rule="evenodd"/><path d="M0 0 4.63129 99.3082" stroke="#000000" stroke-width="0.666667" stroke-miterlimit="8" fill="none" fill-rule="evenodd" transform="matrix(-1 0 0 1 1154.13 226.5)"/><path d="M1155.14 227.233 1114.5 167.5" stroke="#000000" stroke-width="0.666667" stroke-miterlimit="8" fill="none" fill-rule="evenodd"/><path d="M1148.3 328.785 1052.5 200.5" stroke="#000000" stroke-width="0.666667" stroke-miterlimit="8" fill="none" fill-rule="evenodd"/><path d="M984.5 285.5C984.5 280.53 988.753 276.5 994 276.5 999.247 276.5 1003.5 280.53 1003.5 285.5 1003.5 290.471 999.247 294.5 994 294.5 988.753 294.5 984.5 290.471 984.5 285.5Z" stroke="#4472C4" stroke-width="1.33333" stroke-miterlimit="8" fill="#4472C4" fill-rule="evenodd"/><path d="M947.5 344.5C947.5 339.53 951.753 335.5 957 335.5 962.247 335.5 966.5 339.53 966.5 344.5 966.5 349.471 962.247 353.5 957 353.5 951.753 353.5 947.5 349.471 947.5 344.5Z" stroke="#4472C4" stroke-width="1.33333" stroke-miterlimit="8" fill="#4472C4" fill-rule="evenodd"/><path d="M1021.5 369.5C1021.5 364.53 1025.75 360.5 1031 360.5 1036.25 360.5 1040.5 364.53 1040.5 369.5 1040.5 374.471 1036.25 378.5 1031 378.5 1025.75 378.5 1021.5 374.471 1021.5 369.5Z" stroke="#4472C4" stroke-width="1.33333" stroke-miterlimit="8" fill="#4472C4" fill-rule="evenodd"/><path d="M1003.5 326.5C1003.5 321.53 1007.53 317.5 1012.5 317.5 1017.47 317.5 1021.5 321.53 1021.5 326.5 1021.5 331.471 1017.47 335.5 1012.5 335.5 1007.53 335.5 1003.5 331.471 1003.5 326.5Z" stroke="#4472C4" stroke-width="1.33333" stroke-miterlimit="8" fill="#4472C4" fill-rule="evenodd"/><path d="M1104.5 164.5C1104.5 159.529 1108.75 155.5 1114 155.5 1119.25 155.5 1123.5 159.529 1123.5 164.5 1123.5 169.471 1119.25 173.5 1114 173.5 1108.75 173.5 1104.5 169.471 1104.5 164.5Z" stroke="#FFC000" stroke-width="1.33333" stroke-miterlimit="8" fill="#FFC000" fill-rule="evenodd"/><path d="M1095.5 217C1095.5 212.306 1099.75 208.5 1105 208.5 1110.25 208.5 1114.5 212.306 1114.5 217 1114.5 221.694 1110.25 225.5 1105 225.5 1099.75 225.5 1095.5 221.694 1095.5 217Z" stroke="#FFC000" stroke-width="1.33333" stroke-miterlimit="8" fill="#FFC000" fill-rule="evenodd"/><path d="M1143.5 225.5C1143.5 220.529 1147.75 216.5 1153 216.5 1158.25 216.5 1162.5 220.529 1162.5 225.5 1162.5 230.471 1158.25 234.5 1153 234.5 1147.75 234.5 1143.5 230.471 1143.5 225.5Z" stroke="#FFC000" stroke-width="1.33333" stroke-miterlimit="8" fill="#FFC000" fill-rule="evenodd"/><path d="M1044.5 197.5C1044.5 192.529 1048.53 188.5 1053.5 188.5 1058.47 188.5 1062.5 192.529 1062.5 197.5 1062.5 202.471 1058.47 206.5 1053.5 206.5 1048.53 206.5 1044.5 202.471 1044.5 197.5Z" stroke="#FFC000" stroke-width="1.33333" stroke-miterlimit="8" fill="#FFC000" fill-rule="evenodd"/><path d="M1138.5 326.5C1138.5 321.53 1142.75 317.5 1148 317.5 1153.25 317.5 1157.5 321.53 1157.5 326.5 1157.5 331.471 1153.25 335.5 1148 335.5 1142.75 335.5 1138.5 331.471 1138.5 326.5Z" stroke="#548235" stroke-width="1.33333" stroke-miterlimit="8" fill="#548235" fill-rule="evenodd"/><path d="M1227.5 326C1227.5 321.306 1231.75 317.5 1237 317.5 1242.25 317.5 1246.5 321.306 1246.5 326 1246.5 330.694 1242.25 334.5 1237 334.5 1231.75 334.5 1227.5 330.694 1227.5 326Z" stroke="#548235" stroke-width="1.33333" stroke-miterlimit="8" fill="#548235" fill-rule="evenodd"/><path d="M1149.5 401.5C1149.5 396.53 1153.75 392.5 1159 392.5 1164.25 392.5 1168.5 396.53 1168.5 401.5 1168.5 406.471 1164.25 410.5 1159 410.5 1153.75 410.5 1149.5 406.471 1149.5 401.5Z" stroke="#548235" stroke-width="1.33333" stroke-miterlimit="8" fill="#548235" fill-rule="evenodd"/><path d="M1187.5 356.5C1187.5 351.53 1191.75 347.5 1197 347.5 1202.25 347.5 1206.5 351.53 1206.5 356.5 1206.5 361.471 1202.25 365.5 1197 365.5 1191.75 365.5 1187.5 361.471 1187.5 356.5Z" stroke="#548235" stroke-width="1.33333" stroke-miterlimit="8" fill="#548235" fill-rule="evenodd"/><text font-family="Calibri,Calibri_MSFontService,sans-serif" font-weight="400" font-size="24" transform="translate(898.129 159)">C</text></g></svg>